<?xml version="1.0" encoding="UTF-8" standalone="no"?>
<!-- Created with Inkscape (http://www.inkscape.org/) -->

<svg
   xmlns:osb="http://www.openswatchbook.org/uri/2009/osb"
   xmlns:dc="http://purl.org/dc/elements/1.1/"
   xmlns:cc="http://creativecommons.org/ns#"
   xmlns:rdf="http://www.w3.org/1999/02/22-rdf-syntax-ns#"
   xmlns:svg="http://www.w3.org/2000/svg"
   xmlns="http://www.w3.org/2000/svg"
   xmlns:sodipodi="http://sodipodi.sourceforge.net/DTD/sodipodi-0.dtd"
   xmlns:inkscape="http://www.inkscape.org/namespaces/inkscape"
   width="210mm"
   height="297mm"
   viewBox="0 0 744.09448819 1052.3622047"
   id="svg2"
   version="1.1"
   inkscape:version="0.91 r13725"
   sodipodi:docname="logo.svg">
  <defs
     id="defs4">
    <linearGradient
       inkscape:collect="always"
       id="linearGradient8938"
       osb:paint="gradient">
      <stop
         style="stop-color:#800000;stop-opacity:1;"
         offset="0"
         id="stop8940" />
      <stop
         style="stop-color:#800000;stop-opacity:0;"
         offset="1"
         id="stop8942" />
    </linearGradient>
    <linearGradient
       id="linearGradient8932"
       osb:paint="solid">
      <stop
         style="stop-color:#000000;stop-opacity:1;"
         offset="0"
         id="stop8934" />
    </linearGradient>
    <marker
       inkscape:stockid="StopM"
       orient="auto"
       refY="0.0"
       refX="0.0"
       id="StopM"
       style="overflow:visible"
       inkscape:isstock="true">
      <path
         id="path6645"
         d="M 0.0,5.65 L 0.0,-5.65"
         style="fill:none;fill-opacity:0.75;fill-rule:evenodd;stroke:#800000;stroke-width:1pt;stroke-opacity:1"
         transform="scale(0.4)" />
    </marker>
    <marker
       style="overflow:visible"
       inkscape:stockid="InfiniteLineEnd"
       id="InfiniteLineEnd"
       refX="0"
       refY="0"
       orient="auto"
       inkscape:isstock="true">
      <g
         id="g6708"
         style="fill:#800000;stroke:#800000;stroke-opacity:1;fill-opacity:1">
        <circle
           id="circle6710"
           r="0.8"
           cy="0"
           cx="3"
           style="stroke:#800000;stroke-opacity:1;fill:#800000;fill-opacity:1" />
        <circle
           id="circle6712"
           r="0.8"
           cy="0"
           cx="6.5"
           style="stroke:#800000;stroke-opacity:1;fill:#800000;fill-opacity:1" />
        <circle
           id="circle6714"
           r="0.8"
           cy="0"
           cx="10"
           style="stroke:#800000;stroke-opacity:1;fill:#800000;fill-opacity:1" />
      </g>
    </marker>
    <marker
       inkscape:stockid="CurveOut"
       orient="auto"
       refY="0.0"
       refX="0.0"
       id="CurveOut"
       style="overflow:visible"
       inkscape:isstock="true">
      <path
         id="path6660"
         d="M -5.4129913,-5.0456926 C -2.6529913,-5.0456926 -0.41299131,-2.8056926 -0.41299131,-0.045692580 C -0.41299131,2.7143074 -2.6529913,4.9543074 -5.4129913,4.9543074"
         style="fill:none;fill-rule:evenodd;stroke:#800000;stroke-width:1pt;stroke-opacity:1"
         transform="scale(0.6)" />
    </marker>
    <marker
       inkscape:stockid="EmptyDiamondS"
       orient="auto"
       refY="0.0"
       refX="0.0"
       id="EmptyDiamondS"
       style="overflow:visible"
       inkscape:isstock="true">
      <path
         id="path6585"
         d="M 0,-7.0710768 L -7.0710894,0 L 0,7.0710589 L 7.0710462,0 L 0,-7.0710768 z "
         style="fill-rule:evenodd;fill:#ffffff;stroke:#800000;stroke-width:1pt;stroke-opacity:1"
         transform="scale(0.2)" />
    </marker>
    <marker
       inkscape:stockid="DotS"
       orient="auto"
       refY="0.0"
       refX="0.0"
       id="DotS"
       style="overflow:visible"
       inkscape:isstock="true">
      <path
         id="path6540"
         d="M -2.5,-1.0 C -2.5,1.7600000 -4.7400000,4.0 -7.5,4.0 C -10.260000,4.0 -12.5,1.7600000 -12.5,-1.0 C -12.5,-3.7600000 -10.260000,-6.0 -7.5,-6.0 C -4.7400000,-6.0 -2.5,-3.7600000 -2.5,-1.0 z "
         style="fill-rule:evenodd;stroke:#800000;stroke-width:1pt;stroke-opacity:1;fill:#800000;fill-opacity:1"
         transform="scale(0.2) translate(7.4, 1)" />
    </marker>
    <marker
       inkscape:stockid="DotM"
       orient="auto"
       refY="0.0"
       refX="0.0"
       id="DotM"
       style="overflow:visible"
       inkscape:isstock="true">
      <path
         id="path6537"
         d="M -2.5,-1.0 C -2.5,1.7600000 -4.7400000,4.0 -7.5,4.0 C -10.260000,4.0 -12.5,1.7600000 -12.5,-1.0 C -12.5,-3.7600000 -10.260000,-6.0 -7.5,-6.0 C -4.7400000,-6.0 -2.5,-3.7600000 -2.5,-1.0 z "
         style="fill-rule:evenodd;stroke:#800000;stroke-width:1pt;stroke-opacity:1;fill:#800000;fill-opacity:1"
         transform="scale(0.4) translate(7.4, 1)" />
    </marker>
    <marker
       inkscape:stockid="Arrow1Sstart"
       orient="auto"
       refY="0.0"
       refX="0.0"
       id="marker7377"
       style="overflow:visible"
       inkscape:isstock="true">
      <path
         id="path7379"
         d="M 0.0,0.0 L 5.0,-5.0 L -12.5,0.0 L 5.0,5.0 L 0.0,0.0 z "
         style="fill-rule:evenodd;stroke:#800000;stroke-width:1pt;stroke-opacity:1;fill:#800000;fill-opacity:1"
         transform="scale(0.2) translate(6,0)" />
    </marker>
    <marker
       inkscape:stockid="Arrow1Sstart"
       orient="auto"
       refY="0.0"
       refX="0.0"
       id="marker7265"
       style="overflow:visible"
       inkscape:isstock="true">
      <path
         id="path7267"
         d="M 0.0,0.0 L 5.0,-5.0 L -12.5,0.0 L 5.0,5.0 L 0.0,0.0 z "
         style="fill-rule:evenodd;stroke:#800000;stroke-width:1pt;stroke-opacity:1;fill:#800000;fill-opacity:1"
         transform="scale(0.2) translate(6,0)" />
    </marker>
    <marker
       inkscape:stockid="Arrow2Mstart"
       orient="auto"
       refY="0.0"
       refX="0.0"
       id="Arrow2Mstart"
       style="overflow:visible"
       inkscape:isstock="true">
      <path
         id="path6497"
         style="fill-rule:evenodd;stroke-width:0.625;stroke-linejoin:round;stroke:#800000;stroke-opacity:1;fill:#800000;fill-opacity:1"
         d="M 8.7185878,4.0337352 L -2.2072895,0.016013256 L 8.7185884,-4.0017078 C 6.9730900,-1.6296469 6.9831476,1.6157441 8.7185878,4.0337352 z "
         transform="scale(0.6) translate(0,0)" />
    </marker>
    <marker
       inkscape:stockid="Arrow2Lstart"
       orient="auto"
       refY="0.0"
       refX="0.0"
       id="marker7097"
       style="overflow:visible"
       inkscape:isstock="true">
      <path
         id="path7099"
         style="fill-rule:evenodd;stroke-width:0.625;stroke-linejoin:round;stroke:#800000;stroke-opacity:1;fill:#800000;fill-opacity:1"
         d="M 8.7185878,4.0337352 L -2.2072895,0.016013256 L 8.7185884,-4.0017078 C 6.9730900,-1.6296469 6.9831476,1.6157441 8.7185878,4.0337352 z "
         transform="scale(1.1) translate(1,0)" />
    </marker>
    <marker
       inkscape:stockid="Tail"
       orient="auto"
       refY="0.0"
       refX="0.0"
       id="Tail"
       style="overflow:visible"
       inkscape:isstock="true">
      <g
         id="g6509"
         transform="scale(-1.2)"
         style="stroke:#800000;stroke-opacity:1;fill:#800000;fill-opacity:1">
        <path
           id="path6511"
           d="M -3.8048674,-3.9585227 L 0.54352094,0"
           style="fill:#800000;fill-rule:evenodd;stroke:#800000;stroke-width:0.8;stroke-linecap:round;stroke-opacity:1;fill-opacity:1" />
        <path
           id="path6513"
           d="M -1.2866832,-3.9585227 L 3.0617053,0"
           style="fill:#800000;fill-rule:evenodd;stroke:#800000;stroke-width:0.8;stroke-linecap:round;stroke-opacity:1;fill-opacity:1" />
        <path
           id="path6515"
           d="M 1.3053582,-3.9585227 L 5.6537466,0"
           style="fill:#800000;fill-rule:evenodd;stroke:#800000;stroke-width:0.8;stroke-linecap:round;stroke-opacity:1;fill-opacity:1" />
        <path
           id="path6517"
           d="M -3.8048674,4.1775838 L 0.54352094,0.21974226"
           style="fill:#800000;fill-rule:evenodd;stroke:#800000;stroke-width:0.8;stroke-linecap:round;stroke-opacity:1;fill-opacity:1" />
        <path
           id="path6519"
           d="M -1.2866832,4.1775838 L 3.0617053,0.21974226"
           style="fill:#800000;fill-rule:evenodd;stroke:#800000;stroke-width:0.8;stroke-linecap:round;stroke-opacity:1;fill-opacity:1" />
        <path
           id="path6521"
           d="M 1.3053582,4.1775838 L 5.6537466,0.21974226"
           style="fill:#800000;fill-rule:evenodd;stroke:#800000;stroke-width:0.8;stroke-linecap:round;stroke-opacity:1;fill-opacity:1" />
      </g>
    </marker>
    <marker
       inkscape:stockid="Arrow1Sstart"
       orient="auto"
       refY="0.0"
       refX="0.0"
       id="Arrow1Sstart"
       style="overflow:visible"
       inkscape:isstock="true">
      <path
         id="path6485"
         d="M 0.0,0.0 L 5.0,-5.0 L -12.5,0.0 L 5.0,5.0 L 0.0,0.0 z "
         style="fill-rule:evenodd;stroke:#800000;stroke-width:1pt;stroke-opacity:1;fill:#800000;fill-opacity:1"
         transform="scale(0.2) translate(6,0)" />
    </marker>
    <marker
       inkscape:stockid="Arrow2Lstart"
       orient="auto"
       refY="0.0"
       refX="0.0"
       id="Arrow2Lstart"
       style="overflow:visible"
       inkscape:isstock="true">
      <path
         id="path6491"
         style="fill-rule:evenodd;stroke-width:0.625;stroke-linejoin:round;stroke:#800000;stroke-opacity:1;fill:#800000;fill-opacity:1"
         d="M 8.7185878,4.0337352 L -2.2072895,0.016013256 L 8.7185884,-4.0017078 C 6.9730900,-1.6296469 6.9831476,1.6157441 8.7185878,4.0337352 z "
         transform="scale(1.1) translate(1,0)" />
    </marker>
    <marker
       inkscape:stockid="Arrow1Lstart"
       orient="auto"
       refY="0.0"
       refX="0.0"
       id="marker6847"
       style="overflow:visible"
       inkscape:isstock="true">
      <path
         id="path6849"
         d="M 0.0,0.0 L 5.0,-5.0 L -12.5,0.0 L 5.0,5.0 L 0.0,0.0 z "
         style="fill-rule:evenodd;stroke:#800000;stroke-width:1pt;stroke-opacity:1;fill:#800000;fill-opacity:1"
         transform="scale(0.8) translate(12.5,0)" />
    </marker>
    <marker
       inkscape:stockid="Arrow1Lstart"
       orient="auto"
       refY="0.0"
       refX="0.0"
       id="marker6777"
       style="overflow:visible"
       inkscape:isstock="true">
      <path
         id="path6779"
         d="M 0.0,0.0 L 5.0,-5.0 L -12.5,0.0 L 5.0,5.0 L 0.0,0.0 z "
         style="fill-rule:evenodd;stroke:#800000;stroke-width:1pt;stroke-opacity:1;fill:#800000;fill-opacity:1"
         transform="scale(0.8) translate(12.5,0)" />
    </marker>
    <marker
       inkscape:stockid="Arrow1Lstart"
       orient="auto"
       refY="0.0"
       refX="0.0"
       id="marker6749"
       style="overflow:visible"
       inkscape:isstock="true">
      <path
         id="path6751"
         d="M 0.0,0.0 L 5.0,-5.0 L -12.5,0.0 L 5.0,5.0 L 0.0,0.0 z "
         style="fill-rule:evenodd;stroke:#800000;stroke-width:1pt;stroke-opacity:1;fill:#800000;fill-opacity:1"
         transform="scale(0.8) translate(12.5,0)" />
    </marker>
    <marker
       inkscape:stockid="Arrow1Lstart"
       orient="auto"
       refY="0.0"
       refX="0.0"
       id="Arrow1Lstart"
       style="overflow:visible"
       inkscape:isstock="true">
      <path
         id="path6473"
         d="M 0.0,0.0 L 5.0,-5.0 L -12.5,0.0 L 5.0,5.0 L 0.0,0.0 z "
         style="fill-rule:evenodd;stroke:#800000;stroke-width:1pt;stroke-opacity:1;fill:#800000;fill-opacity:1"
         transform="scale(0.8) translate(12.5,0)" />
    </marker>
    <linearGradient
       id="linearGradient6463"
       osb:paint="solid">
      <stop
         style="stop-color:#800000;stop-opacity:1;"
         offset="0"
         id="stop6465" />
    </linearGradient>
    <linearGradient
       id="linearGradient5651"
       osb:paint="solid">
      <stop
         style="stop-color:#000000;stop-opacity:1;"
         offset="0"
         id="stop5653" />
    </linearGradient>
    <inkscape:path-effect
       effect="spiro"
       id="path-effect5617"
       is_visible="true" />
    <linearGradient
       id="linearGradient5603"
       osb:paint="solid">
      <stop
         style="stop-color:#000000;stop-opacity:1;"
         offset="0"
         id="stop5605" />
    </linearGradient>
    <linearGradient
       id="linearGradient5750"
       osb:paint="solid">
      <stop
         style="stop-color:#000000;stop-opacity:1;"
         offset="0"
         id="stop5752" />
    </linearGradient>
    <linearGradient
       id="linearGradient5734"
       osb:paint="solid">
      <stop
         style="stop-color:#800000;stop-opacity:1;"
         offset="0"
         id="stop5736" />
    </linearGradient>
    <inkscape:path-effect
       effect="spiro"
       id="path-effect5617-3"
       is_visible="true" />
    <inkscape:path-effect
       effect="spiro"
       id="path-effect5617-4"
       is_visible="true" />
    <inkscape:path-effect
       effect="spiro"
       id="path-effect5617-9"
       is_visible="true" />
  </defs>
  <sodipodi:namedview
     id="base"
     pagecolor="#ffffff"
     bordercolor="#666666"
     borderopacity="1.0"
     inkscape:pageopacity="0.0"
     inkscape:pageshadow="2"
     inkscape:zoom="1.4142136"
     inkscape:cx="418.25726"
     inkscape:cy="862.68908"
     inkscape:document-units="px"
     inkscape:current-layer="text4230-5"
     showgrid="false"
     inkscape:window-width="1366"
     inkscape:window-height="711"
     inkscape:window-x="0"
     inkscape:window-y="0"
     inkscape:window-maximized="1"
     inkscape:object-nodes="true"
     inkscape:snap-smooth-nodes="true" />
  <metadata
     id="metadata7">
    <rdf:RDF>
      <cc:Work
         rdf:about="">
        <dc:format>image/svg+xml</dc:format>
        <dc:type
           rdf:resource="http://purl.org/dc/dcmitype/StillImage" />
        <dc:title />
      </cc:Work>
    </rdf:RDF>
  </metadata>
  <g
     inkscape:label="Camada 1"
     inkscape:groupmode="layer"
     id="layer1"
     style="display:inline">
    <path
       style="fill:#800000"
       d="M 222.80469 183.47656 C 220.85926 183.38756 219.81679 183.64246 217.46289 184.7793 C 214.91769 186.00853 213.09738 186.43945 210.46484 186.43945 C 207.66671 186.43945 206.25692 186.10019 203.35547 184.72852 C 201.12765 183.67532 200.41993 183.49991 198.40625 183.50391 C 196.83143 183.50691 196.79144 183.51391 195.67383 183.89648 C 194.37913 184.34008 193.75535 184.66812 192.56445 185.53125 C 190.36929 187.12222 188.1307 190.17518 187.00391 193.11328 C 185.53602 196.94081 184.89949 200.7002 185.03516 204.74023 C 185.18395 209.17032 186.05206 212.67605 187.92773 216.41602 C 189.56337 219.67741 190.72941 223.25702 191.34375 226.9043 C 191.69273 228.97622 191.70634 229.13442 192.73438 241.85742 C 193.24757 248.20864 193.71604 253.68516 193.77344 254.02539 C 193.83084 254.36563 193.99688 255.01509 194.14258 255.46875 C 194.96245 258.02154 196.86437 260.0217 198.95703 260.5293 C 199.82023 260.7387 200.89052 260.70682 201.56836 260.45312 C 202.6771 260.0383 203.65576 258.82704 204.2207 257.16992 C 204.36571 256.74461 205.71869 251.1764 207.22852 244.79688 C 208.22065 240.60478 208.8013 238.19836 209.24609 236.40039 C 209.24412 236.40028 209.24221 236.4005 209.24023 236.40039 L 209.24805 236.39648 C 209.2476 236.39831 209.24655 236.39856 209.24609 236.40039 C 209.62836 236.42109 210.0151 236.43359 210.4082 236.43359 C 210.82477 236.43359 211.23271 236.41958 211.63672 236.39844 C 211.63767 236.39998 211.63968 236.40081 211.64062 236.40234 C 212.07468 238.15161 212.62988 240.47622 213.5625 244.42578 C 215.03403 250.65754 216.33996 256.07534 216.46289 256.46484 C 216.93147 257.94953 218.35054 259.81417 219.43164 260.36328 C 220.80823 261.06247 222.92241 260.53393 224.44531 259.10938 C 225.97324 257.68007 226.86167 255.8972 227.16211 253.66406 C 227.22701 253.18205 227.67334 247.89278 228.1543 241.91016 C 228.63525 235.92753 229.10125 230.35912 229.18945 229.53711 C 229.59102 225.79581 230.40351 222.47672 231.73242 219.17773 L 231.73438 219.17578 C 231.73524 219.17695 231.73551 219.17848 231.73633 219.17969 L 231.73633 234.32422 C 231.73633 234.94922 232.02279 235.47006 232.5957 235.88672 C 233.11653 236.25131 233.74153 236.43359 234.4707 236.43359 L 242.12695 236.43359 C 245.40819 236.43359 247.98633 235.18359 249.86133 232.68359 C 251.58008 230.39192 252.43945 227.57942 252.43945 224.24609 C 252.43945 220.7565 251.528 217.83983 249.70508 215.49609 C 247.72592 212.83983 245.01758 211.51172 241.58008 211.51172 L 234.87305 211.51172 C 234.87251 211.51371 234.87163 211.51558 234.87109 211.51758 C 234.87041 211.51612 234.86955 211.51533 234.86914 211.51367 C 234.86899 211.51312 234.86928 211.51228 234.86914 211.51172 L 234.87305 211.51172 C 235.43983 209.41456 235.74163 207.18739 235.80273 204.62695 C 235.87663 201.5306 235.70383 199.66403 235.10156 197.00781 C 233.58904 190.33724 229.63531 185.19486 224.95117 183.80664 C 224.27605 183.60655 223.69881 183.51746 222.80469 183.47656 z M 222.31055 185.875 C 224.13789 185.85817 225.92635 186.59339 227.60352 188.05664 C 232.1672 192.03825 234.41169 200.52661 233.03906 208.60742 C 232.62814 211.02655 232.04419 212.75147 230.63477 215.70312 C 228.81 219.52462 227.76548 222.79632 227.12891 226.68359 C 226.77606 228.83829 226.76673 228.9363 225.7832 241.1875 C 224.86296 252.65028 224.77552 253.58112 224.52344 254.48828 C 224.09514 256.02959 222.79006 257.6969 221.75977 258.01953 C 220.65158 258.36655 220.61945 258.36165 219.99609 257.73828 C 218.94436 256.68655 219.00213 256.88557 216.0332 244.32617 C 215.01461 240.01725 214.57641 238.20864 214.07617 236.12891 C 214.07606 236.12844 214.07628 236.12742 214.07617 236.12695 L 214.08008 236.12695 C 218.2996 235.40263 221.73992 233.37377 224.39258 230.02734 C 227.36133 226.17317 228.8457 221.43359 228.8457 215.80859 C 228.8457 209.87109 227.2832 204.79298 224.1582 200.57422 C 220.77278 195.88672 216.37175 193.54297 210.95508 193.54297 C 204.9655 193.54297 200.19986 195.78256 196.6582 200.26172 C 193.5332 204.32422 191.9707 209.27214 191.9707 215.10547 C 191.9707 220.93881 193.50716 225.80858 196.58008 229.71484 C 199.27537 233.22688 202.69388 235.35497 206.83008 236.11328 C 206.35839 238.01644 205.79898 240.31953 204.90039 244.08398 C 203.36518 250.51545 202.08559 255.89339 202.05859 256.03516 C 201.97009 256.49866 201.24815 257.82795 200.98438 258.01172 C 200.6423 258.25001 200.3094 258.30047 199.73633 258.20117 C 197.93973 257.88995 196.53388 255.97381 196.14062 253.30273 C 196.08222 252.90578 195.64046 247.68576 195.16016 241.70312 C 194.23199 230.1421 194.15231 229.24495 193.91211 227.63086 C 193.24303 223.1348 192.2465 219.89245 190.23633 215.66992 C 188.76662 212.58266 188.12909 210.54946 187.66211 207.47266 C 187.45016 206.07636 187.48339 201.21802 187.71484 199.74023 C 188.4492 195.05358 190.18363 191.17496 192.66797 188.66406 C 195.13219 186.17354 197.76723 185.36101 200.66602 186.19727 C 200.98282 186.28867 201.7756 186.62977 202.42773 186.95508 C 204.44985 187.96382 206.11907 188.48753 208.17969 188.75977 C 211.756 189.23224 215.18726 188.61804 218.66602 186.88086 C 219.93866 186.24535 220.50355 186.057 221.52539 185.92773 C 221.78782 185.89453 222.0495 185.8774 222.31055 185.875 z M 215.21094 201.64453 C 215.55613 201.66093 215.77842 201.69713 216.03906 201.77734 C 217.84745 202.33418 219.3731 204.39662 219.95703 207.07227 C 220.18955 208.13772 220.25704 208.88693 220.22852 210.12891 C 220.18732 211.92532 219.87436 213.31659 219.19531 214.72461 C 218.35179 216.47371 217.87915 218.15266 217.67578 220.12109 C 217.64178 220.45081 217.46106 222.68428 217.27539 225.08398 C 217.0897 227.48368 216.91762 229.60549 216.89258 229.79883 C 216.7766 230.69456 216.43364 231.4091 215.84375 231.98242 C 215.25581 232.55385 214.43966 232.76475 213.9082 232.48438 C 213.49082 232.26412 212.94263 231.5174 212.76172 230.92188 C 212.71432 230.76565 212.21069 228.59143 211.64258 226.0918 C 210.52653 221.1813 210.56224 221.31104 210.33594 221.51562 C 210.27164 221.57372 210.04833 222.50599 209.19727 226.24219 C 208.61436 228.80112 208.09114 231.03254 208.03516 231.20312 C 207.81705 231.86783 207.43977 232.35508 207.01172 232.52148 C 206.75003 232.62321 206.33716 232.63471 206.00391 232.55078 C 205.19599 232.34718 204.46105 231.54543 204.14453 230.52148 C 204.08833 230.33951 204.0241 230.07984 204.00195 229.94336 C 203.97975 229.80688 203.79968 227.61006 203.60156 225.0625 C 203.20466 219.95915 203.19918 219.89552 203.06445 219.06445 C 202.82727 217.60147 202.37561 216.1656 201.74414 214.85742 C 201.02001 213.35727 200.68439 211.95079 200.62695 210.17383 C 200.57455 208.55332 200.82197 207.04504 201.38867 205.50977 C 201.82369 204.33126 202.68769 203.1069 203.53516 202.46875 C 203.99493 202.12253 204.23649 201.99042 204.73633 201.8125 C 205.1678 201.6589 205.18302 201.65756 205.79102 201.65625 C 206.56844 201.65425 206.84108 201.72405 207.70117 202.14648 C 208.82133 202.69668 209.36504 202.83398 210.44531 202.83398 C 211.46166 202.83398 212.16582 202.66103 213.14844 202.16797 C 214.05721 201.71197 214.45987 201.60881 215.21094 201.64453 z M 268.45508 210.80859 C 264.80925 210.80859 261.94467 212.13673 259.86133 214.79297 C 257.98633 217.24089 257.04883 220.20964 257.04883 223.69922 C 257.04883 227.13672 257.96028 230.05339 259.7832 232.44922 C 261.91863 235.15756 264.70508 236.51172 268.14258 236.51172 C 271.68425 236.51172 274.47069 235.20964 276.50195 232.60547 C 278.27277 230.36589 279.1582 227.52734 279.1582 224.08984 C 279.1582 220.60025 278.24675 217.55339 276.42383 214.94922 C 274.39258 212.18881 271.73633 210.80859 268.45508 210.80859 z M 343.92383 210.80859 C 340.278 210.80859 337.41342 212.13673 335.33008 214.79297 C 333.45508 217.24089 332.51758 220.20964 332.51758 223.69922 C 332.51758 227.13672 333.42902 230.05339 335.25195 232.44922 C 337.38737 235.15756 340.17383 236.51172 343.61133 236.51172 C 347.153 236.51172 349.93946 235.20964 351.9707 232.60547 C 353.74153 230.36589 354.62694 227.52734 354.62695 224.08984 C 354.62695 220.60025 353.7155 217.55339 351.89258 214.94922 C 349.86133 212.18881 347.20508 210.80859 343.92383 210.80859 z M 285.7207 211.74609 C 284.31446 211.74609 283.61133 212.65756 283.61133 214.48047 L 283.61133 234.08984 C 283.61133 234.87108 283.87175 235.49608 284.39258 235.96484 C 284.91342 236.43358 285.77278 236.66797 286.9707 236.66797 C 287.64778 236.66797 288.27278 236.43358 288.8457 235.96484 C 289.41863 235.54817 289.70508 234.63673 289.70508 233.23047 L 289.08008 220.80859 L 299.7832 234.08984 C 301.13736 235.80858 302.25716 236.66797 303.14258 236.66797 C 304.49675 236.66797 305.17383 235.88672 305.17383 234.32422 L 305.17383 214.24609 C 305.17383 213.41275 304.91342 212.81381 304.39258 212.44922 C 303.92383 212.03256 303.11653 211.82422 301.9707 211.82422 C 301.24153 211.82422 300.61653 212.0065 300.0957 212.37109 C 299.62696 212.78775 299.39258 213.67317 299.39258 215.02734 L 299.93945 227.05859 L 289.1582 214.48047 C 287.69986 212.65756 286.55403 211.74609 285.7207 211.74609 z M 312.12695 212.37109 C 311.34569 212.37109 310.74675 212.6315 310.33008 213.15234 C 309.91342 213.72525 309.70508 214.35025 309.70508 215.02734 C 309.70508 215.65234 309.91342 216.22525 310.33008 216.74609 C 310.79883 217.26692 311.44987 217.52734 312.2832 217.52734 L 315.95508 216.90234 L 315.95508 233.62109 C 315.95508 234.61067 316.2155 235.36589 316.73633 235.88672 C 317.25717 236.40756 317.90819 236.66797 318.68945 236.66797 C 319.47069 236.66797 320.12175 236.40756 320.64258 235.88672 C 321.16342 235.31381 321.42383 234.5065 321.42383 233.46484 L 321.42383 216.90234 L 325.25195 217.52734 C 326.13737 217.52734 326.8405 217.26692 327.36133 216.74609 C 327.778 216.32942 327.98633 215.7565 327.98633 215.02734 C 327.98633 214.29817 327.75195 213.69923 327.2832 213.23047 C 326.71028 212.65756 326.00717 212.37109 325.17383 212.37109 L 312.12695 212.37109 z M 204.79883 212.86719 C 204.79859 212.87419 204.79908 212.88147 204.79883 212.88867 C 204.80683 212.90057 204.81447 212.91203 204.82227 212.92383 C 204.82211 212.92283 204.82243 212.92092 204.82227 212.91992 C 204.82027 212.90782 204.8145 212.89677 204.8125 212.88477 C 204.8085 212.87777 204.80553 212.87679 204.79883 212.86719 z M 203.24805 212.89844 C 203.25005 212.91924 203.25091 212.94024 203.25391 212.96094 C 203.25491 212.97214 203.26372 213.00329 203.26172 212.99219 C 203.25572 212.96099 203.25375 212.92964 203.24805 212.89844 z M 203.4668 213.64062 C 203.4799 213.67552 203.49231 213.71032 203.50781 213.74414 C 203.51381 213.75684 203.51584 213.76105 203.52734 213.78125 C 203.50754 213.73405 203.4826 213.68965 203.4668 213.64062 z M 203.81836 214.29102 C 203.83806 214.31642 203.89745 214.39194 203.87695 214.36719 C 203.86695 214.35559 203.86096 214.34178 203.85156 214.33008 C 203.84156 214.31588 203.82746 214.30562 203.81836 214.29102 z M 268.14258 215.41797 C 269.44466 215.41797 270.4082 216.069 271.0332 217.37109 C 271.81446 218.82942 272.20508 220.73048 272.20508 223.07422 C 272.20508 225.57422 271.81445 227.70964 271.0332 229.48047 C 270.4082 230.93881 269.4707 231.66797 268.2207 231.66797 C 266.76236 231.66797 265.7207 230.99089 265.0957 229.63672 C 264.36653 228.17839 264.00195 226.09506 264.00195 223.38672 C 264.00195 220.88672 264.36653 218.90756 265.0957 217.44922 C 265.7207 216.09506 266.73633 215.41797 268.14258 215.41797 z M 343.61133 215.41797 C 344.91341 215.41797 345.87694 216.069 346.50195 217.37109 C 347.28319 218.82942 347.67383 220.73048 347.67383 223.07422 C 347.67383 225.57422 347.28319 227.70964 346.50195 229.48047 C 345.87695 230.93881 344.93945 231.66797 343.68945 231.66797 C 342.2311 231.66797 341.18945 230.99089 340.56445 229.63672 C 339.83527 228.17839 339.4707 226.09506 339.4707 223.38672 C 339.4707 220.88672 339.83527 218.90756 340.56445 217.44922 C 341.18945 216.09506 342.20508 215.41797 343.61133 215.41797 z M 237.75195 216.66797 L 243.14258 216.66797 C 243.81966 216.66797 244.52277 216.92839 245.25195 217.44922 C 246.03319 217.91798 246.60613 218.49089 246.9707 219.16797 C 247.69987 220.31381 248.06445 221.87631 248.06445 223.85547 C 248.06445 225.93881 247.64777 227.65756 246.81445 229.01172 C 246.34569 229.74089 245.56446 230.31381 244.4707 230.73047 C 243.37696 231.14714 242.33528 231.35547 241.3457 231.35547 L 237.75195 231.35547 L 237.75195 216.66797 z M 207.10156 218.80859 C 207.10189 218.80959 207.10124 218.8115 207.10156 218.8125 L 207.10352 218.81055 L 207.10156 218.80859 z M 206.89844 235.84375 L 206.9043 235.84375 C 206.90252 235.84431 206.90026 235.84511 206.89844 235.8457 C 206.89862 235.84496 206.89825 235.84449 206.89844 235.84375 z "
       id="path4228" />
    <g
       style="font-style:normal;font-variant:normal;font-weight:normal;font-stretch:normal;font-size:80px;line-height:125%;font-family:Dyuthi;-inkscape-font-specification:Dyuthi;letter-spacing:0px;word-spacing:0px;fill:#000000;fill-opacity:1;stroke:none;stroke-width:1px;stroke-linecap:butt;stroke-linejoin:miter;stroke-opacity:1"
       id="text4230" />
    <path
       style="fill:#000000"
       d="m 211.52616,151.36221 c -1.1252,-0.27293 -2.14862,-1.34829 -2.58945,-2.72089 -0.0783,-0.24393 -0.16769,-0.59319 -0.19854,-0.77614 -0.0309,-0.18294 -0.28186,-3.12669 -0.55779,-6.54167 -0.55277,-6.841 -0.56074,-6.92663 -0.74838,-8.04067 -0.33032,-1.96111 -0.95718,-3.8859 -1.83665,-5.63951 -1.00852,-2.01093 -1.47548,-3.89545 -1.55548,-6.27745 -0.073,-2.17228 0.26944,-4.19435 1.0587,-6.25236 0.60586,-1.57978 1.80946,-3.22075 2.98976,-4.07619 0.64033,-0.4641 0.97611,-0.64063 1.67226,-0.87914 0.60092,-0.20589 0.62234,-0.20897 1.4691,-0.21073 1.08273,-0.002 1.46315,0.0918 2.66102,0.65812 1.56007,0.73753 2.31856,0.92006 3.82308,0.92006 1.41549,0 2.39397,-0.23229 3.76249,-0.89323 1.26566,-0.61127 1.82653,-0.74795 2.87256,-0.70007 0.48076,0.022 0.79037,0.0696 1.15337,0.17714 2.5186,0.74643 4.64504,3.51187 5.4583,7.09855 0.32384,1.42822 0.41605,2.43207 0.37633,4.09694 -0.0575,2.40806 -0.49321,4.27387 -1.43893,6.16132 -1.1748,2.34465 -1.8329,4.59397 -2.11613,7.23264 -0.0474,0.44198 -0.29784,3.43552 -0.55644,6.6523 -0.2586,3.21678 -0.49872,6.06075 -0.53359,6.31992 -0.16154,1.20073 -0.64001,2.15915 -1.46156,2.92768 -0.81884,0.76599 -1.95501,1.05023 -2.69518,0.67429 -0.5813,-0.29525 -1.34494,-1.29746 -1.59689,-2.09576 -0.0661,-0.20943 -0.76754,-3.1223 -1.55876,-6.47304 -1.55435,-6.58248 -1.5029,-6.40889 -1.81807,-6.13461 -0.0895,0.0779 -0.4022,1.32543 -1.58751,6.33378 -0.81182,3.43022 -1.53983,6.42387 -1.61779,6.65255 -0.30377,0.89101 -0.83031,1.54284 -1.42647,1.76589 -0.36446,0.13637 -0.93923,0.15286 -1.40336,0.0403 z m 1.08948,-1.35335 c 0.14183,-0.0988 0.53076,-0.81342 0.57835,-1.06264 0.0145,-0.0762 0.70184,-2.96796 1.52731,-6.42609 1.11837,-4.68516 1.53806,-6.35586 1.64686,-6.55577 0.36678,-0.67388 1.2788,-0.96556 1.98741,-0.63559 0.36499,0.16996 0.72421,0.57905 0.82985,0.94506 0.0448,0.15511 0.72968,3.02442 1.52202,6.37625 1.59636,6.75303 1.56488,6.6465 2.13039,7.212 0.33517,0.33517 0.35268,0.33796 0.94854,0.15138 0.55398,-0.17348 1.25558,-1.07006 1.48587,-1.8988 0.13554,-0.48777 0.18296,-0.9881 0.67776,-7.15149 0.52883,-6.58732 0.53379,-6.6408 0.72351,-7.79936 0.34228,-2.09014 0.90381,-3.84881 1.88496,-5.90359 0.75783,-1.58706 1.07223,-2.51469 1.29318,-3.81542 0.73805,-4.34496 -0.46943,-8.90929 -2.92326,-11.05016 -1.03062,-0.89917 -2.13867,-1.28726 -3.26752,-1.14445 -0.54944,0.0695 -0.85335,0.17082 -1.53764,0.51252 -1.87048,0.93406 -3.71503,1.26472 -5.63796,1.01068 -1.10797,-0.14638 -2.00623,-0.42821 -3.0935,-0.9706 -0.35065,-0.17491 -0.77691,-0.35824 -0.94725,-0.40738 -1.55864,-0.44965 -2.9755,-0.0126 -4.30048,1.32654 -1.3358,1.35008 -2.26827,3.43523 -2.66312,5.95518 -0.12451,0.7946 -0.14236,3.40707 -0.0284,4.15785 0.25109,1.65436 0.59448,2.74733 1.38473,4.40731 1.08084,2.2704 1.61644,4.01331 1.9762,6.43079 0.12915,0.86788 0.17199,1.35105 0.67106,7.56728 0.25825,3.21678 0.49526,6.02332 0.52668,6.23676 0.21144,1.43621 0.96781,2.46629 1.93382,2.63363 0.30813,0.0534 0.48671,0.0262 0.67063,-0.10189 z"
       id="path4228-7"
       inkscape:connector-curvature="0" />
    <g
       transform="translate(102.2181,-157.34728)"
       style="font-style:normal;font-variant:normal;font-weight:normal;font-stretch:normal;font-size:80px;line-height:125%;font-family:Dyuthi;-inkscape-font-specification:Dyuthi;letter-spacing:0px;word-spacing:0px;fill:#000000;fill-opacity:1;stroke:none;stroke-width:1px;stroke-linecap:butt;stroke-linejoin:miter;stroke-opacity:1"
       id="text4230-5">
      <path
         inkscape:connector-curvature="0"
         style="font-style:normal;font-variant:normal;font-weight:normal;font-stretch:normal;font-size:80px;line-height:125%;font-family:Dyuthi;-inkscape-font-specification:Dyuthi;letter-spacing:0px;word-spacing:0px;display:inline;fill:#000000;fill-opacity:1;fill-rule:evenodd;stroke:none;stroke-width:1px;stroke-linecap:butt;stroke-linejoin:miter;stroke-opacity:1"
         d="m 552.35804,354.62953 6.71679,33.58789 2.82812,38.18359 0.70703,21.91992 0,-0.70703 1.76758,-32.52734 3.18164,-27.22266 8.48633,-31.46679 -23.68749,-1.76758 z"
         id="path4157-7-1" />
      <path
         inkscape:connector-curvature="0"
         id="path4246-1"
         style="font-size:80px"
         d="m 345.04465,213.36667 q 4.92187,0 7.96875,4.14062 2.73437,3.90625 2.73437,9.14063 0,5.15625 -2.65625,8.51562 -3.04687,3.90625 -8.35937,3.90625 -5.15625,0 -8.35938,-4.0625 -2.73437,-3.59375 -2.73437,-8.75 0,-5.23437 2.8125,-8.90625 3.125,-3.98437 8.59375,-3.98437 z m -0.3125,4.60937 q -2.10938,0 -3.04688,2.03125 -1.09375,2.1875 -1.09375,5.9375 0,4.0625 1.09375,6.25 0.9375,2.03125 3.125,2.03125 1.875,0 2.8125,-2.1875 1.17188,-2.65625 1.17188,-6.40625 0,-3.51562 -1.17188,-5.70312 -0.9375,-1.95313 -2.89062,-1.95313 z m -27.65625,1.48438 -3.67188,0.625 q -1.25,0 -1.95312,-0.78125 -0.625,-0.78125 -0.625,-1.71875 0,-1.01563 0.625,-1.875 0.625,-0.78125 1.79687,-0.78125 l 13.04688,0 q 1.25,0 2.10937,0.85937 0.70313,0.70313 0.70313,1.79688 0,1.09375 -0.625,1.71875 -0.78125,0.78125 -2.10938,0.78125 l -3.82812,-0.625 0,16.5625 q 0,1.5625 -0.78125,2.42187 -0.78125,0.78125 -1.95313,0.78125 -1.17187,0 -1.95312,-0.78125 -0.78125,-0.78125 -0.78125,-2.26562 l 0,-16.71875 z m -32.34375,-2.42188 q 0,-2.73437 2.10937,-2.73437 1.25,0 3.4375,2.73437 l 10.78125,12.57813 -0.54687,-12.03125 q 0,-2.03125 0.70312,-2.65625 0.78125,-0.54688 1.875,-0.54688 1.71875,0 2.42188,0.625 0.78125,0.54688 0.78125,1.79688 l 0,20.07812 q 0,2.34375 -2.03125,2.34375 -1.32813,0 -3.35938,-2.57812 l -10.70312,-13.28125 0.625,12.42187 q 0,2.10938 -0.85938,2.73438 -0.85937,0.70312 -1.875,0.70312 -1.79687,0 -2.57812,-0.70312 -0.78125,-0.70313 -0.78125,-1.875 l 0,-19.60938 z m -15.15625,-3.67187 q 4.92187,0 7.96875,4.14062 2.73437,3.90625 2.73437,9.14063 0,5.15625 -2.65625,8.51562 -3.04687,3.90625 -8.35937,3.90625 -5.15625,0 -8.35938,-4.0625 -2.73437,-3.59375 -2.73437,-8.75 0,-5.23437 2.8125,-8.90625 3.125,-3.98437 8.59375,-3.98437 z m -0.3125,4.60937 q -2.10938,0 -3.04688,2.03125 -1.09375,2.1875 -1.09375,5.9375 0,4.0625 1.09375,6.25 0.9375,2.03125 3.125,2.03125 1.875,0 2.8125,-2.1875 1.17188,-2.65625 1.17188,-6.40625 0,-3.51562 -1.17188,-5.70312 -0.9375,-1.95313 -2.89062,-1.95313 z m -36.40625,-1.17187 q 0,-0.78125 0.625,-1.79688 0.70312,-0.9375 1.5625,-0.9375 l 7.65625,0 q 5.15625,0 8.125,3.98438 2.73437,3.51562 2.73437,8.75 0,5 -2.57812,8.4375 -2.8125,3.75 -7.73438,3.75 l -7.65625,0 q -1.09375,0 -1.875,-0.54688 -0.85937,-0.625 -0.85937,-1.5625 l 0,-20.07812 z m 11.40625,2.42187 -5.39063,0 0,14.6875 3.59375,0 q 1.48438,0 3.125,-0.625 1.64063,-0.625 2.34375,-1.71875 1.25,-2.03125 1.25,-5.15625 0,-2.96875 -1.09375,-4.6875 -0.54687,-1.01562 -1.71875,-1.71875 -1.09375,-0.78125 -2.10937,-0.78125 z m -32.1875,-23.125 q 8.125,0 13.20312,7.03125 4.6875,6.32813 4.6875,15.23438 0,8.4375 -4.45312,14.21875 -5.07813,6.40625 -13.98438,6.40625 -8.67187,0 -13.82812,-6.71875 -4.60938,-5.85938 -4.60938,-14.60938 0,-8.75 4.6875,-14.84375 5.3125,-6.71875 14.29688,-6.71875 z m -0.46875,7.73438 q -3.51563,0 -5.15625,3.4375 -1.71875,3.4375 -1.71875,9.84375 0,2.42187 0.46875,5.70312 0.54687,3.28125 1.25,4.6875 1.71875,3.35938 5.23437,3.35938 3.04688,0 4.6875,-3.51563 0.78125,-1.64062 1.32813,-5 0.625,-3.35937 0.625,-5.70312 0,-2.1875 -0.625,-5.07813 -0.54688,-2.96875 -1.25,-4.45312 -1.64063,-3.28125 -4.84375,-3.28125 z" />
      <text
         xml:space="preserve"
         style="font-style:normal;font-weight:normal;font-size:40px;line-height:125%;font-family:sans-serif;letter-spacing:0px;word-spacing:0px;fill:#000000;fill-opacity:1;stroke:none;stroke-width:1px;stroke-linecap:butt;stroke-linejoin:miter;stroke-opacity:1"
         x="400.71396"
         y="213.11786"
         id="text4149"
         sodipodi:linespacing="125%"><tspan
           sodipodi:role="line"
           id="tspan4151"
           x="400.71396"
           y="213.11786"
           style="font-style:normal;font-variant:normal;font-weight:normal;font-stretch:normal;font-family:Sawasdee;-inkscape-font-specification:Sawasdee">Odonto</tspan></text>
      <path
         style="opacity:1;fill:none;fill-opacity:1;stroke:none"
         id="path4153"
         d="m 468.15711,254.09086 c 0.76718,1.73868 1.60978,3.44158 2.41755,5.16115 0.97495,2.08793 2.0508,4.12436 2.88435,6.27446 1.1829,2.99354 2.08309,6.08778 3.05633,9.15311 1.23788,3.78827 2.37049,7.60942 3.46241,11.44193 0.9327,3.38049 1.36878,6.86585 2.03543,10.30232 0.50707,2.49919 0.99971,4.99884 1.28777,7.53371 0.15379,2.05281 0.25439,4.1068 0.42492,6.15874 0.12586,1.32948 0.20045,2.66304 0.22878,3.998 0.0196,1.20572 0.007,2.41145 0.004,3.61724 -0.008,1.09156 0.0118,2.18306 0.0237,3.27452 0.005,0.53976 0.003,0.2734 0.007,0.79907 0,0 -4.62186,2.35484 -4.62186,2.35484 l 0,0 c 0.004,-0.52998 0.002,-0.26129 0.007,-0.80605 0.0128,-1.10028 0.0338,-2.20058 0.028,-3.30098 -10e-4,-1.20026 -0.008,-2.40043 -0.0165,-3.60065 -0.017,-1.33992 -0.0426,-2.67986 -0.12831,-4.01756 -0.13128,-2.05854 -0.22584,-4.11779 -0.35559,-6.1761 -0.25423,-2.53812 -0.70213,-5.04887 -1.15612,-7.55791 -0.64436,-3.44118 -0.99542,-6.93903 -1.8986,-10.32844 -1.07948,-3.82675 -2.21899,-7.63785 -3.49537,-11.40403 -1.00143,-3.03417 -1.94747,-6.09447 -3.22099,-9.02926 -0.83889,-2.13518 -1.9024,-4.16225 -2.87051,-6.24035 -0.81998,-1.68727 -1.6015,-3.41171 -2.62753,-4.98516 0,0 4.52488,-2.6226 4.52488,-2.6226 z"
         inkscape:connector-curvature="0" />
      <path
         style="font-style:normal;font-variant:normal;font-weight:normal;font-stretch:normal;font-size:80px;line-height:125%;font-family:Dyuthi;-inkscape-font-specification:Dyuthi;letter-spacing:0px;word-spacing:0px;display:inline;fill:none;fill-opacity:1;fill-rule:evenodd;stroke:#800000;stroke-width:3;stroke-linecap:butt;stroke-linejoin:round;stroke-miterlimit:4;stroke-dasharray:none;stroke-dashoffset:0;stroke-opacity:1"
         d="m 403.29622,272.06696 c 1.55239,0.26954 3.22026,-0.23887 4.35834,-1.32852 1.13807,-1.08964 1.71848,-2.73385 1.51666,-4.29648 -0.20493,-1.58673 -1.16211,-3.00101 -2.36347,-4.05763 -1.20136,-1.05663 -2.64053,-1.80009 -4.0752,-2.50822 -1.43467,-0.70812 -2.89301,-1.39906 -4.1631,-2.372 -1.27008,-0.97293 -2.35598,-2.2676 -2.77323,-3.81215 -0.32138,-1.18965 -0.2262,-2.47432 0.18362,-3.63647 0.40983,-1.16216 1.12441,-2.20448 1.99847,-3.07314 1.74812,-1.73733 4.07317,-2.75994 6.39372,-3.59016 2.32056,-0.83023 4.7155,-1.51603 6.85619,-2.73737 1.07035,-0.61068 2.072,-1.35565 2.89815,-2.27 0.82615,-0.91435 1.47352,-2.00319 1.79485,-3.19286 0.39601,-1.46616 0.28202,-3.05009 -0.22668,-4.48106 -0.5087,-1.43097 -1.40039,-2.71127 -2.49803,-3.76086 -2.19528,-2.09918 -5.13312,-3.24571 -8.07755,-3.99149 -2.94442,-0.74577 -5.97419,-1.14252 -8.885,-2.01028 -2.9108,-0.86775 -5.77127,-2.27484 -7.68774,-4.63131 -1.46739,-1.80429 -2.30002,-4.09625 -2.4326,-6.41813 -0.13257,-2.32188 0.42163,-4.66573 1.49112,-6.73089 2.13899,-4.13032 6.2523,-7.01434 10.70162,-8.3702 4.44932,-1.35586 9.22011,-1.31142 13.82728,-0.67208 4.60718,0.63933 9.11161,1.85534 13.66258,2.8163 4.58039,0.96717 9.2151,1.67699 13.875,2.125 l 0,0"
         id="path5615-4"
         inkscape:path-effect="#path-effect5617-3"
         inkscape:original-d="m 403.29622,272.06696 c 0,0 6.875,-2.375 5.875,-5.625 -1,-3.25 -16.375,-7.25 -13.375,-12.75 3,-5.5 24.625,-8.75 20.125,-18.5 -4.5,-9.75 -30.5,-9.5 -27.375,-18.875 3.125,-9.375 19.6799,-20.00875 37.25,-19.375 17.5701,0.63375 13.875,2.125 13.875,2.125 l 0,0"
         inkscape:connector-curvature="0" />
      <path
         style="font-style:normal;font-variant:normal;font-weight:normal;font-stretch:normal;font-size:80px;line-height:125%;font-family:Dyuthi;-inkscape-font-specification:Dyuthi;letter-spacing:0px;word-spacing:0px;display:inline;fill:#000000;fill-opacity:1;fill-rule:evenodd;stroke:#000000;stroke-width:1px;stroke-linecap:butt;stroke-linejoin:miter;stroke-opacity:1"
         d="m 68.363399,167.59843 6.71752,33.58757 2.82842,38.18377 0.70711,21.92031 0,-0.70711 1.76777,-32.52691 3.18198,-27.22361 8.48528,-31.46626 z"
         id="path4157-9"
         inkscape:connector-curvature="0" />
      <path
         style="fill:#000000;fill-opacity:1;fill-rule:evenodd;stroke:#000000;stroke-width:1px;stroke-linecap:butt;stroke-linejoin:miter;stroke-opacity:1"
         d="M 572.40625 97.136719 L 579.12305 130.72461 L 581.95117 168.9082 L 582.6582 190.82812 L 582.6582 190.12109 L 584.42578 157.59375 L 587.60742 130.37109 L 596.09375 98.904297 L 572.40625 97.136719 z "
         id="path4157"
         transform="translate(-102.2181,157.34728)" />
      <path
         style="fill:none;fill-opacity:1;fill-rule:evenodd;stroke:#800000;stroke-width:3;stroke-linecap:butt;stroke-linejoin:round;stroke-miterlimit:4;stroke-dasharray:none;stroke-dashoffset:0;stroke-opacity:1"
         d="m 480.19044,345.53224 c 1.55239,0.26954 3.22026,-0.23887 4.35834,-1.32852 1.13807,-1.08964 1.71848,-2.73385 1.51666,-4.29648 -0.20493,-1.58673 -1.16211,-3.00101 -2.36347,-4.05763 -1.20136,-1.05663 -2.64053,-1.80009 -4.0752,-2.50822 -1.43467,-0.70812 -2.89301,-1.39906 -4.1631,-2.372 -1.27008,-0.97293 -2.35598,-2.2676 -2.77323,-3.81215 -0.32138,-1.18965 -0.2262,-2.47432 0.18362,-3.63647 0.40983,-1.16216 1.12441,-2.20448 1.99847,-3.07314 1.74812,-1.73733 4.07317,-2.75994 6.39372,-3.59016 2.32056,-0.83023 4.7155,-1.51603 6.85619,-2.73737 1.07035,-0.61068 2.072,-1.35565 2.89815,-2.27 0.82615,-0.91435 1.47352,-2.00319 1.79485,-3.19286 0.39601,-1.46616 0.28202,-3.05009 -0.22668,-4.48106 -0.5087,-1.43097 -1.40039,-2.71127 -2.49803,-3.76086 -2.19528,-2.09918 -5.13312,-3.24571 -8.07755,-3.99149 -2.94442,-0.74577 -5.97419,-1.14252 -8.885,-2.01028 -2.9108,-0.86775 -5.77127,-2.27484 -7.68774,-4.63131 -1.46739,-1.80429 -2.30002,-4.09625 -2.4326,-6.41813 -0.13257,-2.32188 0.42163,-4.66573 1.49112,-6.73089 2.13899,-4.13032 6.2523,-7.01434 10.70162,-8.3702 4.44932,-1.35586 9.22011,-1.31142 13.82728,-0.67208 4.60718,0.63933 9.11161,1.85534 13.66258,2.8163 4.58039,0.96717 9.2151,1.67699 13.875,2.125 l 0,0"
         id="path5615"
         inkscape:original-d="m 480.19044,345.53224 c 0,0 6.875,-2.375 5.875,-5.625 -1,-3.25 -16.375,-7.25 -13.375,-12.75 3,-5.5 24.625,-8.75 20.125,-18.5 -4.5,-9.75 -30.5,-9.5 -27.375,-18.875 3.125,-9.375 19.6799,-20.00875 37.25,-19.375 17.5701,0.63375 13.875,2.125 13.875,2.125 l 0,0"
         inkscape:connector-curvature="0"
         inkscape:path-effect="#path-effect5617" />
      <path
         style="font-style:normal;font-variant:normal;font-weight:normal;font-stretch:normal;font-size:80px;line-height:125%;font-family:Dyuthi;-inkscape-font-specification:Dyuthi;letter-spacing:0px;word-spacing:0px;display:inline;fill:none;fill-opacity:1;fill-rule:evenodd;stroke:#000000;stroke-width:3;stroke-linecap:butt;stroke-linejoin:round;stroke-miterlimit:4;stroke-dasharray:none;stroke-dashoffset:0;stroke-opacity:1"
         d="m 417.61149,344.82513 c 1.55239,0.26954 3.22026,-0.23887 4.35834,-1.32852 1.13807,-1.08964 1.71848,-2.73385 1.51666,-4.29648 -0.20493,-1.58673 -1.16211,-3.00101 -2.36347,-4.05763 -1.20136,-1.05663 -2.64053,-1.80009 -4.0752,-2.50822 -1.43467,-0.70812 -2.89301,-1.39906 -4.1631,-2.372 -1.27008,-0.97293 -2.35598,-2.2676 -2.77323,-3.81215 -0.32138,-1.18965 -0.2262,-2.47432 0.18362,-3.63647 0.40983,-1.16216 1.12441,-2.20448 1.99847,-3.07314 1.74812,-1.73733 4.07317,-2.75994 6.39372,-3.59016 2.32056,-0.83023 4.7155,-1.51603 6.85619,-2.73737 1.07035,-0.61068 2.072,-1.35565 2.89815,-2.27 0.82615,-0.91435 1.47352,-2.00319 1.79485,-3.19286 0.39601,-1.46616 0.28202,-3.05009 -0.22668,-4.48106 -0.5087,-1.43097 -1.40039,-2.71127 -2.49803,-3.76086 -2.19528,-2.09918 -5.13312,-3.24571 -8.07755,-3.99149 -2.94442,-0.74577 -5.97419,-1.14252 -8.885,-2.01028 -2.9108,-0.86775 -5.77127,-2.27484 -7.68774,-4.63131 -1.46739,-1.80429 -2.30002,-4.09625 -2.4326,-6.41813 -0.13257,-2.32188 0.42163,-4.66573 1.49112,-6.73089 2.13899,-4.13032 6.2523,-7.01434 10.70162,-8.3702 4.44932,-1.35586 9.22011,-1.31142 13.82728,-0.67208 4.60718,0.63933 9.11161,1.85534 13.66258,2.8163 4.58039,0.96717 9.2151,1.67699 13.875,2.125 l 0,0"
         id="path5615-1"
         inkscape:original-d="m 417.61149,344.82513 c 0,0 6.875,-2.375 5.875,-5.625 -1,-3.25 -16.375,-7.25 -13.375,-12.75 3,-5.5 24.625,-8.75 20.125,-18.5 -4.5,-9.75 -30.5,-9.5 -27.375,-18.875 3.125,-9.375 19.6799,-20.00875 37.25,-19.375 17.5701,0.63375 13.875,2.125 13.875,2.125 l 0,0"
         inkscape:connector-curvature="0"
         inkscape:path-effect="#path-effect5617-4" />
      <path
         inkscape:connector-curvature="0"
         style="font-style:normal;font-variant:normal;font-weight:normal;font-stretch:normal;font-size:80px;line-height:125%;font-family:Dyuthi;-inkscape-font-specification:Dyuthi;letter-spacing:0px;word-spacing:0px;display:inline;fill:none;fill-opacity:1;fill-rule:evenodd;stroke:#800000;stroke-width:3;stroke-linecap:butt;stroke-linejoin:round;stroke-miterlimit:4;stroke-dasharray:none;stroke-dashoffset:0;stroke-opacity:1"
         d="m 562.37367,445.92684 c 1.55239,0.26954 3.22026,-0.23887 4.35834,-1.32852 1.13807,-1.08964 1.71848,-2.73385 1.51666,-4.29648 -0.20493,-1.58673 -1.16211,-3.00101 -2.36347,-4.05763 -1.20136,-1.05663 -2.64053,-1.80009 -4.0752,-2.50822 -1.43467,-0.70812 -2.89301,-1.39906 -4.1631,-2.372 -1.27008,-0.97293 -2.35598,-2.2676 -2.77323,-3.81215 -0.32138,-1.18965 -0.2262,-2.47432 0.18362,-3.63647 0.40983,-1.16216 1.12441,-2.20448 1.99847,-3.07314 1.74812,-1.73733 4.07317,-2.75994 6.39372,-3.59016 2.32056,-0.83023 4.7155,-1.51603 6.85619,-2.73737 1.07035,-0.61068 2.072,-1.35565 2.89815,-2.27 0.82615,-0.91435 1.47352,-2.00319 1.79485,-3.19286 0.39601,-1.46616 0.28202,-3.05009 -0.22668,-4.48106 -0.5087,-1.43097 -1.40039,-2.71127 -2.49803,-3.76086 -2.19528,-2.09918 -5.13312,-3.24571 -8.07755,-3.99149 -2.94442,-0.74577 -5.97419,-1.14252 -8.885,-2.01028 -2.9108,-0.86775 -5.77127,-2.27484 -7.68774,-4.63131 -1.46739,-1.80429 -2.30002,-4.09625 -2.4326,-6.41813 -0.13257,-2.32188 0.42163,-4.66573 1.49112,-6.73089 2.13899,-4.13032 6.2523,-7.01434 10.70162,-8.3702 4.44932,-1.35586 9.22011,-1.31142 13.82728,-0.67208 4.60718,0.63933 9.11161,1.85534 13.66258,2.8163 4.58039,0.96717 9.2151,1.67699 13.875,2.125 l 0,0"
         id="path5615-5-4" />
      <path
         style="color:#000000;font-style:normal;font-variant:normal;font-weight:normal;font-stretch:normal;font-size:80px;line-height:125%;font-family:Dyuthi;-inkscape-font-specification:Dyuthi;text-indent:0;text-align:start;text-decoration:none;text-decoration-line:none;text-decoration-style:solid;text-decoration-color:#000000;letter-spacing:0px;word-spacing:0px;text-transform:none;direction:ltr;block-progression:tb;writing-mode:lr-tb;baseline-shift:baseline;text-anchor:start;white-space:normal;clip-rule:nonzero;display:inline;overflow:visible;visibility:visible;opacity:1;isolation:auto;mix-blend-mode:normal;color-interpolation:sRGB;color-interpolation-filters:linearRGB;solid-color:#000000;solid-opacity:1;fill:#000000;fill-opacity:1;fill-rule:evenodd;stroke:none;stroke-width:3;stroke-linecap:butt;stroke-linejoin:round;stroke-miterlimit:4;stroke-dasharray:none;stroke-dashoffset:0;stroke-opacity:1;color-rendering:auto;image-rendering:auto;shape-rendering:auto;text-rendering:auto;enable-background:accumulate"
         d="m 559.52409,394.27501 0.23047,3.1211 c 1.39104,0.2792 2.75808,0.5436 4.07422,0.87695 0.82798,0.20972 1.63996,0.45575 2.42773,0.73828 l 0.35742,-3.05273 c -0.68328,-0.22275 -1.36886,-0.42153 -2.04883,-0.59375 -1.7098,-0.43306 -3.39807,-0.75258 -5.04101,-1.08985 z"
         id="path9125" />
      <path
         style="color:#000000;font-style:normal;font-variant:normal;font-weight:normal;font-stretch:normal;font-size:80px;line-height:125%;font-family:Dyuthi;-inkscape-font-specification:Dyuthi;text-indent:0;text-align:start;text-decoration:none;text-decoration-line:none;text-decoration-style:solid;text-decoration-color:#000000;letter-spacing:0px;word-spacing:0px;text-transform:none;direction:ltr;block-progression:tb;writing-mode:lr-tb;baseline-shift:baseline;text-anchor:start;white-space:normal;clip-rule:nonzero;display:inline;overflow:visible;visibility:visible;opacity:1;isolation:auto;mix-blend-mode:normal;color-interpolation:sRGB;color-interpolation-filters:linearRGB;solid-color:#000000;solid-opacity:1;fill:#000000;fill-opacity:1;fill-rule:evenodd;stroke:none;stroke-width:3;stroke-linecap:butt;stroke-linejoin:round;stroke-miterlimit:4;stroke-dasharray:none;stroke-dashoffset:0;stroke-opacity:1;color-rendering:auto;image-rendering:auto;shape-rendering:auto;text-rendering:auto;enable-background:accumulate"
         d="m 562.09049,432.19494 0.10938,3.41992 c 0.35679,0.18736 0.69929,0.37855 1.03125,0.57617 l 0.17969,-3.32813 c -0.31525,-0.16218 -0.62973,-0.32074 -0.9375,-0.47265 -0.13298,-0.0656 -0.25143,-0.13047 -0.38282,-0.19531 z"
         id="path9121" />
      <path
         style="color:#000000;font-style:normal;font-variant:normal;font-weight:normal;font-stretch:normal;font-size:80px;line-height:125%;font-family:Dyuthi;-inkscape-font-specification:Dyuthi;text-indent:0;text-align:start;text-decoration:none;text-decoration-line:none;text-decoration-style:solid;text-decoration-color:#000000;letter-spacing:0px;word-spacing:0px;text-transform:none;direction:ltr;block-progression:tb;writing-mode:lr-tb;baseline-shift:baseline;text-anchor:start;white-space:normal;clip-rule:nonzero;display:inline;overflow:visible;visibility:visible;opacity:1;isolation:auto;mix-blend-mode:normal;color-interpolation:sRGB;color-interpolation-filters:linearRGB;solid-color:#000000;solid-opacity:1;fill:#00ff00;fill-opacity:1;fill-rule:evenodd;stroke:none;stroke-width:3;stroke-linecap:butt;stroke-linejoin:round;stroke-miterlimit:4;stroke-dasharray:none;stroke-dashoffset:0;stroke-opacity:1;color-rendering:auto;image-rendering:auto;shape-rendering:auto;text-rendering:auto;enable-background:accumulate"
         d="m 562.63151,444.44884 -0.12305,0.71094 0.0742,2.29883 c 0.0117,0.001 0.0234,0.003 0.0352,0.004 l 0.16406,-2.99804 c -0.0499,-0.006 -0.10108,-0.007 -0.15039,-0.0156 z"
         id="path5615-5" />
    </g>
    <ellipse
       style="opacity:1;fill:#800000;fill-opacity:0;stroke:none;stroke-width:2.20000005;stroke-miterlimit:4;stroke-dasharray:none;stroke-opacity:1"
       id="path4249"
       cx="-132.83505"
       cy="215.45082"
       rx="6.5659914"
       ry="117.68277" />
    <rect
       style="opacity:1;fill:#f3d9d9;fill-opacity:1;fill-rule:evenodd;stroke:none;stroke-width:2.20000005;stroke-miterlimit:4;stroke-dasharray:none;stroke-opacity:1"
       id="rect6018"
       width="13.611806"
       height="13.611806"
       x="239.7092"
       y="155.57404" />
    <rect
       style="display:inline;opacity:1;fill:#800000;fill-opacity:1;fill-rule:evenodd;stroke:none;stroke-width:2.20000005;stroke-miterlimit:4;stroke-dasharray:none;stroke-opacity:1"
       id="rect6018-3"
       width="13.611806"
       height="13.611806"
       x="255.53072"
       y="155.39725" />
    <text
       xml:space="preserve"
       style="font-style:normal;font-weight:normal;font-size:40px;line-height:125%;font-family:sans-serif;letter-spacing:0px;word-spacing:0px;fill:#000000;fill-opacity:1;stroke:none;stroke-width:1px;stroke-linecap:butt;stroke-linejoin:miter;stroke-opacity:1"
       x="173.24117"
       y="56.402302"
       id="text4145"
       sodipodi:linespacing="125%"><tspan
         sodipodi:role="line"
         id="tspan4147"
         x="173.24117"
         y="56.402302" /></text>
  </g>
</svg>
